# xmcd
#
# Track frame offsets:
#	150
#	13714
#	28490
#	43156
#	56126
#	75984
#	88730
#	102361
#	117523
#	135535
#	155420
#	168528
#	180803
#	194006
#	209898
#	225925
#	242765
#	255846
#	273316
#	288796
#	307094
#	320831
#
# Disc length: 4439 seconds
#
# Revision: 1
# Processed by: cddbd v1.5.1PL0 Copyright (c) Steve Scherf et al.
# Submitted via: audiograbber 1.81.01
#
DISCID=3a115516
DTITLE=NANCY WOOD - BEST OF
DYEAR=2002
DGENRE=Deutsch
TTITLE0=ACH DU BST SCHÖN...
TTITLE1=DER TRÄUMER
TTITLE2=EIN BLATT PAPIER
TTITLE3=EIN SCHÖNER TAG
TTITLE4=ER NAHM EIN ANDERES MÄDCHEN
TTITLE5=GEH' ZU IHR
TTITLE6=HERBSTWIND
TTITLE7=KEINE ROSE BLÜHT AUF DEM ASPHALT
TTITLE8=KÖNIG DER NACHT
TTITLE9=LIEDER DER STRASSE
TTITLE10=OH DENK' DARAN
TTITLE11=SIE SITZEN ALLE IM GLEICHEN BOOT
TTITLE12=LONELINESS IS JUST A POINT OF VIEW
TTITLE13=BLANKET ON THE GROUND
TTITLE14=MOONLIGHTNING
TTITLE15=WE NEVER GIVE UP
TTITLE16=IMAGINE THAT
TTITLE17=TO KNOW HIM IS TO LOVE HIM
TTITLE18=SOMEONE TO GIVE MY LOVE TO
TTITLE19=BLUE BAYOU
TTITLE20=HONKY TONK LIES
TTITLE21=TURN YOUR LOVELIGHT ON
EXTD=
EXTT0=
EXTT1=
EXTT2=
EXTT3=
EXTT4=
EXTT5=
EXTT6=
EXTT7=
EXTT8=
EXTT9=
EXTT10=
EXTT11=
EXTT12=
EXTT13=
EXTT14=
EXTT15=
EXTT16=
EXTT17=
EXTT18=
EXTT19=
EXTT20=
EXTT21=
PLAYORDER=
